Charlie Price, a former scientist turned science fiction author, starts living one of his novels when the Federal Science Foundation's weather experiments escape control and turn disastrous.
 
http://www.imdb.com/title/tt1334456/

Subtitles (srt) : Dutch, English.
 
Covers included.

Als de opwarming van de aarde versnelt, brengt de droogte verwoestingen aan in de anders zo regenachtige regio in het noordwesten van de Pacific. Met behulp van vloeibare stikstof, is het Project Rain Dance bedoeld om het probleem op te lossen en regen te veroorzaken.
 
http://www.moviemeter.nl/film/63637

Ondertitels (srt) : Nederlands. Engels.
 
Hoesjes bijgevoegd.

Ondertiteling/subs.......        : Engels / Nederlands Custom. Thnx To RQ!
Thanks to...................     : Just_4_fun_Team

General
Complete name                    : Ice Twisters-AC3-5,1-DVDRip[Eng]2009 2Lions TeamIce Twisters-AC3-5,1-DVDRip[Eng]2009.avi
Format                           : AVI
Format/Info                      : Audio Video Interleave
File size                        : 1.36 GiB
Duration                         : 1h 30mn
Overall bit rate                 : 2 146 Kbps
Writing application              : VirtualDubMod 1.5.4.1 (build 2178/release)
Writing library                  : VirtualDubMod build 2178/release

Video
ID                               : 0
Format                           : MPEG-4 Visual
Format profile                   : Simple@L3
Format settings, BVOP            : No
Format settings, QPel            : No
Format settings, GMC             : No warppoints
Format settings, Matrix          : Default (H.263)
Codec ID                         : XVID
Codec ID/Hint                    : XviD
Duration                         : 1h 30mn
Bit rate                         : 1 816 Kbps
Width                            : 704 pixels
Height                           : 400 pixels
Display aspect ratio             : 16:9
Frame rate                       : 23.976 fps
Resolution                       : 24 bits
Colorimetry                      : 4:2:0
Scan type                        : Progressive
Bits/(Pixel*Frame)               : 0.269
Stream size                      : 1.15 GiB (85%)
Writing library                  : XviD 1.1.2 (UTC 2006-11-01)

Audio
ID                               : 1
Format                           : AC-3
Format/Info                      : Audio Coding 3
Codec ID                         : 2000
Duration                         : 1h 30mn
Bit rate mode                    : Constant
Bit rate                         : 320 Kbps
Channel(s)                       : 6 channels
Channel positions                : Front: L C R, Surround: L R, LFE
Sampling rate                    : 48.0 KHz
Stream size                      : 208 MiB (15%)
Alignment                        : Split accross interleaves
Interleave, duration             : 42 ms (1.00 video frame)
Interleave, preload duration     : 500 ms

Brought to you by 
2Lions Team

meer zien??
Kom dan eens kijken op ons forum 
                     
http://www.2lions.ons-forum.nl

2Lions the site to be for all your Dutch MOVIES and more

******************************************

DON T HIT AND RUN Niet gelijk afhaken als de FILM binnen is blijf seeden. 

Don`t quit after you finished the download, but keep seeding

There are fake torrents from uploaders who use our team name.
Those are not ours, or members from our team.
We 2Lions-Team are not responsible for the fake posts on our name

Wij 2Lions-Team zijn niet verantwoordelijk voor die zieke FAKE posten die op onze naam worden gedaan

Please check our site !!!

to the fakers , get a life !!!